<mxfile host="app.diagrams.net" agent="Mozilla/5.0 (Windows NT 10.0; Win64; x64) AppleWebKit/537.36 (KHTML, like Gecko) Chrome/131.0.0.0 Safari/537.36" version="25.0.1">
  <diagram id="C5RBs43oDa-KdzZeNtuy" name="Page-1">
    <mxGraphModel dx="555" dy="2076" grid="1" gridSize="10" guides="1" tooltips="1" connect="1" arrows="1" fold="1" page="1" pageScale="1" pageWidth="827" pageHeight="1169" math="0" shadow="0">
      <root>
        <mxCell id="WIyWlLk6GJQsqaUBKTNV-0" />
        <mxCell id="WIyWlLk6GJQsqaUBKTNV-1" parent="WIyWlLk6GJQsqaUBKTNV-0" />
        <mxCell id="WIyWlLk6GJQsqaUBKTNV-2" value="" style="rounded=0;html=1;jettySize=auto;orthogonalLoop=1;fontSize=11;endArrow=block;endFill=0;endSize=8;strokeWidth=1;shadow=0;labelBackgroundColor=none;edgeStyle=orthogonalEdgeStyle;" parent="WIyWlLk6GJQsqaUBKTNV-1" edge="1">
          <mxGeometry relative="1" as="geometry">
            <mxPoint x="220" y="130" as="sourcePoint" />
            <mxPoint x="220" y="170" as="targetPoint" />
          </mxGeometry>
        </mxCell>
        <mxCell id="cGGMdD4gigf5Eg3kvMlx-1" style="edgeStyle=orthogonalEdgeStyle;rounded=0;orthogonalLoop=1;jettySize=auto;html=1;exitX=0.5;exitY=1;exitDx=0;exitDy=0;" edge="1" parent="WIyWlLk6GJQsqaUBKTNV-1" source="cGGMdD4gigf5Eg3kvMlx-0">
          <mxGeometry relative="1" as="geometry">
            <mxPoint x="220" y="90" as="targetPoint" />
          </mxGeometry>
        </mxCell>
        <mxCell id="cGGMdD4gigf5Eg3kvMlx-0" value="Start Sequence" style="ellipse;whiteSpace=wrap;html=1;" vertex="1" parent="WIyWlLk6GJQsqaUBKTNV-1">
          <mxGeometry x="160" y="-20" width="120" height="80" as="geometry" />
        </mxCell>
        <mxCell id="cGGMdD4gigf5Eg3kvMlx-5" style="edgeStyle=orthogonalEdgeStyle;rounded=0;orthogonalLoop=1;jettySize=auto;html=1;" edge="1" parent="WIyWlLk6GJQsqaUBKTNV-1" source="cGGMdD4gigf5Eg3kvMlx-3">
          <mxGeometry relative="1" as="geometry">
            <mxPoint x="79.99999999999994" y="360" as="targetPoint" />
          </mxGeometry>
        </mxCell>
        <mxCell id="cGGMdD4gigf5Eg3kvMlx-9" value="&lt;font style=&quot;font-size: 15px;&quot;&gt;No&lt;/font&gt;" style="edgeLabel;html=1;align=center;verticalAlign=middle;resizable=0;points=[];" vertex="1" connectable="0" parent="cGGMdD4gigf5Eg3kvMlx-5">
          <mxGeometry x="0.2108" y="-1" relative="1" as="geometry">
            <mxPoint x="-19" as="offset" />
          </mxGeometry>
        </mxCell>
        <mxCell id="cGGMdD4gigf5Eg3kvMlx-10" style="edgeStyle=orthogonalEdgeStyle;rounded=0;orthogonalLoop=1;jettySize=auto;html=1;exitX=1;exitY=0.5;exitDx=0;exitDy=0;" edge="1" parent="WIyWlLk6GJQsqaUBKTNV-1" source="cGGMdD4gigf5Eg3kvMlx-3" target="cGGMdD4gigf5Eg3kvMlx-11">
          <mxGeometry relative="1" as="geometry">
            <mxPoint x="440" y="360" as="targetPoint" />
          </mxGeometry>
        </mxCell>
        <mxCell id="cGGMdD4gigf5Eg3kvMlx-12" value="&lt;font style=&quot;font-size: 15px;&quot;&gt;Yes&lt;/font&gt;" style="edgeLabel;html=1;align=center;verticalAlign=middle;resizable=0;points=[];" vertex="1" connectable="0" parent="cGGMdD4gigf5Eg3kvMlx-10">
          <mxGeometry x="0.17" y="1" relative="1" as="geometry">
            <mxPoint x="-56" y="-36" as="offset" />
          </mxGeometry>
        </mxCell>
        <mxCell id="cGGMdD4gigf5Eg3kvMlx-3" value="Are the inputs numeric?" style="rhombus;whiteSpace=wrap;html=1;" vertex="1" parent="WIyWlLk6GJQsqaUBKTNV-1">
          <mxGeometry x="140" y="170" width="160" height="90" as="geometry" />
        </mxCell>
        <mxCell id="cGGMdD4gigf5Eg3kvMlx-8" style="edgeStyle=orthogonalEdgeStyle;rounded=0;orthogonalLoop=1;jettySize=auto;html=1;exitX=0.5;exitY=1;exitDx=0;exitDy=0;entryX=0;entryY=0.5;entryDx=0;entryDy=0;" edge="1" parent="WIyWlLk6GJQsqaUBKTNV-1" source="cGGMdD4gigf5Eg3kvMlx-6" target="cGGMdD4gigf5Eg3kvMlx-7">
          <mxGeometry relative="1" as="geometry" />
        </mxCell>
        <mxCell id="cGGMdD4gigf5Eg3kvMlx-6" value="Error message and Exit" style="rounded=0;whiteSpace=wrap;html=1;" vertex="1" parent="WIyWlLk6GJQsqaUBKTNV-1">
          <mxGeometry x="20" y="360" width="120" height="60" as="geometry" />
        </mxCell>
        <mxCell id="cGGMdD4gigf5Eg3kvMlx-7" value="Stop&lt;div&gt;&lt;br&gt;&lt;/div&gt;" style="ellipse;whiteSpace=wrap;html=1;" vertex="1" parent="WIyWlLk6GJQsqaUBKTNV-1">
          <mxGeometry x="170" y="1400" width="120" height="80" as="geometry" />
        </mxCell>
        <mxCell id="cGGMdD4gigf5Eg3kvMlx-13" style="edgeStyle=orthogonalEdgeStyle;rounded=0;orthogonalLoop=1;jettySize=auto;html=1;exitX=0.5;exitY=1;exitDx=0;exitDy=0;" edge="1" parent="WIyWlLk6GJQsqaUBKTNV-1" source="cGGMdD4gigf5Eg3kvMlx-11">
          <mxGeometry relative="1" as="geometry">
            <mxPoint x="455.33333333333337" y="520" as="targetPoint" />
          </mxGeometry>
        </mxCell>
        <mxCell id="cGGMdD4gigf5Eg3kvMlx-11" value="Loop n from n1 to n2" style="rounded=0;whiteSpace=wrap;html=1;" vertex="1" parent="WIyWlLk6GJQsqaUBKTNV-1">
          <mxGeometry x="370" y="360" width="170" height="60" as="geometry" />
        </mxCell>
        <mxCell id="cGGMdD4gigf5Eg3kvMlx-15" style="edgeStyle=orthogonalEdgeStyle;rounded=0;orthogonalLoop=1;jettySize=auto;html=1;exitX=0.5;exitY=1;exitDx=0;exitDy=0;" edge="1" parent="WIyWlLk6GJQsqaUBKTNV-1" source="cGGMdD4gigf5Eg3kvMlx-14">
          <mxGeometry relative="1" as="geometry">
            <mxPoint x="455.33333333333337" y="630" as="targetPoint" />
          </mxGeometry>
        </mxCell>
        <mxCell id="cGGMdD4gigf5Eg3kvMlx-14" value="Calculate the term (n)" style="rounded=0;whiteSpace=wrap;html=1;" vertex="1" parent="WIyWlLk6GJQsqaUBKTNV-1">
          <mxGeometry x="370" y="520" width="170" height="60" as="geometry" />
        </mxCell>
        <mxCell id="cGGMdD4gigf5Eg3kvMlx-19" style="edgeStyle=orthogonalEdgeStyle;rounded=0;orthogonalLoop=1;jettySize=auto;html=1;entryX=0.5;entryY=0;entryDx=0;entryDy=0;" edge="1" parent="WIyWlLk6GJQsqaUBKTNV-1" source="cGGMdD4gigf5Eg3kvMlx-16" target="cGGMdD4gigf5Eg3kvMlx-17">
          <mxGeometry relative="1" as="geometry" />
        </mxCell>
        <mxCell id="cGGMdD4gigf5Eg3kvMlx-16" value="Store first and last terms" style="rounded=0;whiteSpace=wrap;html=1;" vertex="1" parent="WIyWlLk6GJQsqaUBKTNV-1">
          <mxGeometry x="370" y="640" width="170" height="60" as="geometry" />
        </mxCell>
        <mxCell id="cGGMdD4gigf5Eg3kvMlx-22" style="edgeStyle=orthogonalEdgeStyle;rounded=0;orthogonalLoop=1;jettySize=auto;html=1;exitX=0.5;exitY=1;exitDx=0;exitDy=0;" edge="1" parent="WIyWlLk6GJQsqaUBKTNV-1" source="cGGMdD4gigf5Eg3kvMlx-17" target="cGGMdD4gigf5Eg3kvMlx-21">
          <mxGeometry relative="1" as="geometry" />
        </mxCell>
        <mxCell id="cGGMdD4gigf5Eg3kvMlx-17" value="Echo sequence terms" style="shape=parallelogram;perimeter=parallelogramPerimeter;whiteSpace=wrap;html=1;fixedSize=1;" vertex="1" parent="WIyWlLk6GJQsqaUBKTNV-1">
          <mxGeometry x="365" y="760" width="180" height="60" as="geometry" />
        </mxCell>
        <mxCell id="cGGMdD4gigf5Eg3kvMlx-20" value="Input a,b,c,n1 and n2" style="shape=parallelogram;perimeter=parallelogramPerimeter;whiteSpace=wrap;html=1;fixedSize=1;" vertex="1" parent="WIyWlLk6GJQsqaUBKTNV-1">
          <mxGeometry x="130" y="90" width="180" height="60" as="geometry" />
        </mxCell>
        <mxCell id="cGGMdD4gigf5Eg3kvMlx-24" style="edgeStyle=orthogonalEdgeStyle;rounded=0;orthogonalLoop=1;jettySize=auto;html=1;exitX=0.5;exitY=1;exitDx=0;exitDy=0;entryX=0.5;entryY=0;entryDx=0;entryDy=0;" edge="1" parent="WIyWlLk6GJQsqaUBKTNV-1" source="cGGMdD4gigf5Eg3kvMlx-21" target="cGGMdD4gigf5Eg3kvMlx-23">
          <mxGeometry relative="1" as="geometry" />
        </mxCell>
        <mxCell id="cGGMdD4gigf5Eg3kvMlx-21" value="Calculate the product" style="rounded=0;whiteSpace=wrap;html=1;" vertex="1" parent="WIyWlLk6GJQsqaUBKTNV-1">
          <mxGeometry x="370" y="860" width="170" height="60" as="geometry" />
        </mxCell>
        <mxCell id="cGGMdD4gigf5Eg3kvMlx-25" style="edgeStyle=orthogonalEdgeStyle;rounded=0;orthogonalLoop=1;jettySize=auto;html=1;exitX=0;exitY=0.5;exitDx=0;exitDy=0;" edge="1" parent="WIyWlLk6GJQsqaUBKTNV-1" source="cGGMdD4gigf5Eg3kvMlx-23">
          <mxGeometry relative="1" as="geometry">
            <mxPoint x="290" y="1170" as="targetPoint" />
          </mxGeometry>
        </mxCell>
        <mxCell id="cGGMdD4gigf5Eg3kvMlx-32" value="&lt;font style=&quot;font-size: 15px;&quot;&gt;No&lt;/font&gt;" style="edgeLabel;html=1;align=center;verticalAlign=middle;resizable=0;points=[];" vertex="1" connectable="0" parent="cGGMdD4gigf5Eg3kvMlx-25">
          <mxGeometry x="0.1148" y="-2" relative="1" as="geometry">
            <mxPoint x="22" y="-83" as="offset" />
          </mxGeometry>
        </mxCell>
        <mxCell id="cGGMdD4gigf5Eg3kvMlx-27" style="edgeStyle=orthogonalEdgeStyle;rounded=0;orthogonalLoop=1;jettySize=auto;html=1;exitX=1;exitY=0.5;exitDx=0;exitDy=0;" edge="1" parent="WIyWlLk6GJQsqaUBKTNV-1" source="cGGMdD4gigf5Eg3kvMlx-23">
          <mxGeometry relative="1" as="geometry">
            <mxPoint x="640" y="1170" as="targetPoint" />
          </mxGeometry>
        </mxCell>
        <mxCell id="cGGMdD4gigf5Eg3kvMlx-33" value="&lt;font style=&quot;font-size: 15px;&quot;&gt;Yes&lt;/font&gt;&lt;div&gt;&lt;br&gt;&lt;/div&gt;" style="edgeLabel;html=1;align=center;verticalAlign=middle;resizable=0;points=[];" vertex="1" connectable="0" parent="cGGMdD4gigf5Eg3kvMlx-27">
          <mxGeometry x="0.1863" y="-2" relative="1" as="geometry">
            <mxPoint x="-38" y="-74" as="offset" />
          </mxGeometry>
        </mxCell>
        <mxCell id="cGGMdD4gigf5Eg3kvMlx-23" value="Is the product divisible by 4?" style="rhombus;whiteSpace=wrap;html=1;" vertex="1" parent="WIyWlLk6GJQsqaUBKTNV-1">
          <mxGeometry x="360" y="960" width="190" height="80" as="geometry" />
        </mxCell>
        <mxCell id="cGGMdD4gigf5Eg3kvMlx-30" style="edgeStyle=orthogonalEdgeStyle;rounded=0;orthogonalLoop=1;jettySize=auto;html=1;exitX=0;exitY=0.5;exitDx=0;exitDy=0;" edge="1" parent="WIyWlLk6GJQsqaUBKTNV-1" source="cGGMdD4gigf5Eg3kvMlx-26" target="cGGMdD4gigf5Eg3kvMlx-7">
          <mxGeometry relative="1" as="geometry">
            <Array as="points">
              <mxPoint x="290" y="1199" />
              <mxPoint x="290" y="1314" />
              <mxPoint x="230" y="1314" />
            </Array>
          </mxGeometry>
        </mxCell>
        <mxCell id="cGGMdD4gigf5Eg3kvMlx-26" value="Echo: &quot;Not divisible&quot;" style="shape=parallelogram;perimeter=parallelogramPerimeter;whiteSpace=wrap;html=1;fixedSize=1;" vertex="1" parent="WIyWlLk6GJQsqaUBKTNV-1">
          <mxGeometry x="200" y="1169" width="180" height="60" as="geometry" />
        </mxCell>
        <mxCell id="cGGMdD4gigf5Eg3kvMlx-31" style="edgeStyle=orthogonalEdgeStyle;rounded=0;orthogonalLoop=1;jettySize=auto;html=1;exitX=0.5;exitY=1;exitDx=0;exitDy=0;entryX=1;entryY=0.5;entryDx=0;entryDy=0;" edge="1" parent="WIyWlLk6GJQsqaUBKTNV-1" source="cGGMdD4gigf5Eg3kvMlx-28" target="cGGMdD4gigf5Eg3kvMlx-7">
          <mxGeometry relative="1" as="geometry" />
        </mxCell>
        <mxCell id="cGGMdD4gigf5Eg3kvMlx-28" value="Echo: &quot;Divisible by 4&quot;" style="shape=parallelogram;perimeter=parallelogramPerimeter;whiteSpace=wrap;html=1;fixedSize=1;" vertex="1" parent="WIyWlLk6GJQsqaUBKTNV-1">
          <mxGeometry x="540" y="1169" width="180" height="60" as="geometry" />
        </mxCell>
      </root>
    </mxGraphModel>
  </diagram>
</mxfile>
